<?xml version="1.0" encoding="UTF-8" standalone="no"?>
<svg
   xmlns:dc="http://purl.org/dc/elements/1.1/"
   xmlns:cc="http://creativecommons.org/ns#"
   xmlns:rdf="http://www.w3.org/1999/02/22-rdf-syntax-ns#"
   xmlns:svg="http://www.w3.org/2000/svg"
   xmlns="http://www.w3.org/2000/svg"
   viewBox="0 0 521.33331 200"
   height="200"
   width="521.33331"
   xml:space="preserve"
   id="svg2"
   version="1.1"><metadata
     id="metadata8"><rdf:RDF><cc:Work
         rdf:about=""><dc:format>image/svg+xml</dc:format><dc:type
           rdf:resource="http://purl.org/dc/dcmitype/StillImage" /></cc:Work></rdf:RDF></metadata><defs
     id="defs6" /><g
     transform="matrix(1.3333333,0,0,-1.3333333,0,200)"
     id="g10"><g
       transform="scale(0.1)"
       id="g12"><path
         id="path14"
         style="fill:#7ab5dc;fill-opacity:1;fill-rule:evenodd;stroke:none"
         d="m 82.9688,985.859 c 12.7695,18.321 28.3592,33.361 46.6402,45.121 54.61,58.4 114.063,106.79 178.36,145.15 3.121,-39.72 7.769,-78.43 14.019,-116.13 5.551,-21.41 11.41,-41.99 17.621,-61.68 2.071,-3.48 3.481,-7.968 4.18,-13.48 0.313,-2.07 -1.449,-4.328 -5.199,-6.75 -4.18,-1.02 -8.32,-2.07 -12.5,-3.09 -20.352,-11.801 -40.781,-23.711 -61.129,-35.82 -31.481,-20.739 -61.871,-43.871 -91.289,-69.45 -1.684,1.051 -3.793,1.36 -6.172,1.051 -4.879,22.11 -11.051,45.981 -18.672,71.52 0,4.5 -1.598,14.34 -4.687,29.578 -2.77,15.191 -5.161,25.391 -7.262,30.581 -2.777,-1.37 -5.199,-2.07 -7.27,-2.07 0.7,-12.812 0.7,-29.218 0,-49.261 -0.308,-20.43 -1.019,-37.5 -2.07,-51.328 0,-9.332 1.41,-21.602 4.141,-36.789 2.808,-15.59 3.281,-27.5 1.601,-35.782 -7.972,-12.82 -17.66,-24.929 -29.062,-36.289 C 89.0195,767.77 75.6992,743.59 64.3008,718.359 c -7.582,40.039 -10.1992,83.442 -7.7813,130.082 0,10.739 0.1993,21.289 0.5118,31.637 1.3671,38.043 10.039,73.281 25.9375,105.781 M 75.6992,684.648 c 6.9219,8.282 15.711,15.704 26.4488,22.262 15.551,16.61 30.743,34.262 45.622,52.93 21.101,-44.61 43.359,-88.82 66.878,-132.731 4.84,-7.269 10.192,-15.589 16.051,-24.918 2.781,-2.39 5.75,-3.992 8.832,-4.652 18.321,-18.668 33.199,-39.769 44.61,-63.238 C 260.98,511.129 241.25,484.488 225,454.41 214.648,431.988 202.891,409.488 189.77,387.031 140,460.27 105.43,540.16 86.0508,626.559 c -2.7305,7.269 -6.211,16.601 -10.3516,28.011 -4.1406,11.41 -4.1406,21.41 0,30.078 M 262.891,627.621 c -7.621,13.117 -16.602,25.699 -26.993,37.848 -16.918,33.16 -30.937,67.73 -41.988,103.672 -8.64,8.98 -12.781,18.519 -12.461,28.519 3.821,12.11 9.68,19.371 17.653,21.789 1.058,4.141 2.418,7.27 4.136,9.301 20.742,17.66 42.703,33.711 65.821,48.199 25.632,25.942 56.562,44.61 92.851,56.02 11.371,-30.391 24.031,-60.508 37.86,-90.199 8.589,-25.579 18.82,-52.032 30.539,-79.329 9.382,-15.55 18.011,-30.589 25.941,-45.082 4.18,-10.39 8.672,-20.078 13.48,-29.058 -0.351,-3.481 -1.371,-5.551 -3.089,-6.211 -12.461,-8.641 -25.942,-16.961 -40.43,-24.891 -40.121,-26.289 -79.531,-57.73 -118.242,-94.371 -18.629,18.32 -33.707,39.57 -45.078,63.793 m 216.168,181.438 c -7.258,10.043 -14.137,20.941 -20.739,32.66 -3.75,13.511 -7.769,26.09 -11.91,37.851 -5.859,11.41 -11.41,23.668 -16.609,36.801 -2.071,4.488 -5.5,11.289 -10.352,20.231 -4.84,8.988 -7.969,15.546 -9.328,19.726 2.07,5.512 9.84,11.371 23.32,17.621 13.508,6.25 23.161,10.5 29.059,12.961 30.738,14.18 63.441,27.47 97.969,39.93 64.652,20.74 130.312,39.06 197.031,54.92 18.672,-24.18 34.77,-49.06 48.199,-74.65 4.852,-9.301 11.41,-19.532 19.731,-30.59 17.269,-29.719 31.949,-60.149 44.058,-91.25 12.813,-18.981 21.453,-39.571 25.942,-61.68 -88.828,-13.512 -173.008,-32.852 -252.539,-58.078 -38.711,-16.961 -77.77,-32.66 -117.192,-47.153 -20.039,30.391 -35.578,60.621 -46.64,90.7 M 561.02,666.48 c 5.152,4.848 20.89,12.622 47.179,23.36 26.602,10.359 44.379,17.461 53.36,21.211 29.73,9.687 58.089,18.828 85.043,27.5 19.378,4.847 38.046,8.789 56.019,11.918 11.758,5.859 23.828,12.652 36.289,20.191 7.93,5.199 19.328,9.219 34.18,11.961 14.879,2.77 27.14,3.981 36.832,3.629 15.547,-29.371 27.308,-59.801 35.277,-91.25 6.211,-14.84 13.281,-28.32 21.211,-40.43 4.488,-16.25 9.211,-31.8 14.02,-46.679 2.422,-5.192 5.351,-9.692 8.832,-13.481 2.379,-10.39 4.289,-19.531 5.66,-27.461 11.058,-24.57 19.058,-51.168 23.868,-79.84 -58.052,-15.23 -114.22,-33.16 -168.52,-53.91 -18.981,-10.39 -39.372,-20.929 -61.129,-31.64 -12.11,-7.61 -24.219,-12.969 -36.289,-16.09 -5.192,6.25 -9.532,12.113 -12.973,17.621 -8.32,6.25 -15.231,12.808 -20.738,19.719 -8.672,12.07 -16.762,24.89 -24.371,38.363 -12.071,13.129 -22.969,26.598 -32.661,40.43 -15.937,26.289 -32.699,51.019 -50.308,74.179 -12.071,20.348 -25.039,41.098 -38.91,62.188 -2.731,4.14 -6.371,8.48 -10.86,12.972 -2.422,5.508 -2.769,10.7 -1.011,15.539 m 173.671,443.79 c -29.421,-3.43 -58.089,-10 -86.062,-19.68 -53.59,-11.06 -105.469,-25.08 -155.539,-42 -33.211,-15.54 -67.039,-28.16 -101.641,-37.85 -18.988,48.05 -32.66,98.01 -40.937,149.85 -4.852,10.74 -7.973,22.26 -9.34,34.76 4.488,10.7 13.828,16.25 28.008,16.56 64.961,32.47 135.621,56.49 212.031,72.07 10.738,4.14 22.5,5.86 35.238,5.16 7.961,-4.8 17.813,-17.23 29.571,-37.3 11.75,-20.04 21.089,-34.73 28,-44.07 26.601,-30.78 46.8,-63.28 60.671,-97.5 M 0,791.41 C 1.76172,685.66 23.7109,587.5 65.8594,496.949 71.3711,487.621 76.25,478.441 80.3516,469.488 87.9688,451.84 94.6914,434.57 100.59,417.66 c 9.332,-14.57 18.672,-29.219 28,-44.109 19.691,-39.063 44.07,-74.84 73.09,-107.34 6.601,-3.789 11.949,-7.77 16.09,-11.871 2.742,-3.828 4.652,-7.309 5.71,-10.391 6.911,-4.847 14.02,-9.539 21.25,-14.027 6.559,-8.981 13.668,-16.91 21.29,-23.832 6.871,-4.141 12.929,-7.809 18.121,-10.891 16.25,-11.758 32.66,-25.59 49.257,-41.488 13.122,-9.691 28.012,-17.621 44.571,-23.832 7.621,-5.539 13.32,-10.188 17.109,-14.02 11.402,-5.55 35.231,-17.4606 71.563,-35.7379 36.289,-18.0117 59.609,-29.5703 69.961,-34.7695 3.519,-2.0703 8.828,-4.6524 16.097,-7.7735 10,1.3711 11.602,3.2813 4.641,5.7032 -25.891,24.8789 -65.82,55.8203 -119.762,92.8087 -53.558,36.961 -93.476,67.39 -119.726,91.25 -29.731,33.172 -57.93,67.23 -84.532,102.148 -6.211,5.512 -13.519,12.621 -21.761,21.211 -7.969,8.68 -10.188,17.699 -6.758,27 2.078,1.75 4.648,4.141 7.777,7.262 13.473,11.41 26.801,25.078 39.922,40.937 5.512,10.743 12.07,21.09 19.691,31.09 5.188,2.813 8.829,4.184 10.899,4.184 7.609,7.617 14.719,15.039 21.289,22.308 6.172,7.571 16.402,7.418 30.543,-0.55 2.457,-3.442 5.738,-7.071 9.848,-10.86 3.511,-2.422 8.82,-5 16.089,-7.769 3.121,-4.18 6.25,-8.129 9.34,-11.961 6.211,-7.219 19.531,-20.891 39.922,-40.93 20.391,-20.039 34.758,-32.66 43,-37.859 -12.422,17.269 -31.601,40.828 -57.5,70.508 -25.93,30.082 -44.601,53.562 -56.012,70.511 11.051,12.418 22.461,23.711 34.219,33.711 5.551,4.84 11.563,11.25 18.121,19.18 4.141,2.418 8.321,4.84 12.461,7.269 3.129,5.149 7.07,10.192 11.961,15 3.078,0.7 6.359,1.598 9.84,2.61 3.437,1.719 6.41,4.648 8.789,8.832 5.551,0.707 11.25,2.066 17.109,4.137 9.02,8.281 18.321,15 28.012,20.203 5.539,2.808 10.738,4.687 15.539,5.699 2.781,0 7.11,-1.52 12.969,-4.652 3.793,-3.438 12.109,-15.387 24.891,-35.778 12.769,-20.39 22.609,-34.883 29.57,-43.511 9.64,-14.891 21.558,-31.649 35.738,-50.321 36.992,-44.25 76.094,-88.508 117.192,-132.73 -21.098,-22.457 -44.93,-41.489 -71.532,-57.028 -12.808,-11.41 -24.758,-25.043 -35.816,-40.98 -29.692,-32.461 -55.434,-69.961 -77.223,-112.5 -0.711,-1.012 -1.57,-3.09 -2.621,-6.211 -3.129,-7.621 -5.508,-16.449 -7.226,-26.449 1.718,-4.141 4.097,-8.473 7.226,-12.961 l 5.742,-1.059 c 13.09,19.059 26.602,38.75 40.391,59.141 15.59,19.027 31.801,38.668 48.789,59.098 5.859,5.199 11.91,10.199 18.129,15.039 13.473,14.851 27.851,29.179 43.043,43.011 5.156,7.621 12.578,15.231 22.269,22.852 12.11,8.238 23.707,15.707 34.758,22.269 9.653,-8.281 19.891,-15.711 30.59,-22.269 5.859,-3.121 12.77,-6.602 20.699,-10.391 6.25,-6.91 12.313,-13.832 18.172,-20.742 6.559,-4.488 14.879,-9.648 24.918,-15.551 6.172,-5.539 11.91,-11.558 17.07,-18.117 16.25,-10.039 32.653,-19.383 49.262,-28.051 l 3.121,2.11 c -43.203,45.23 -85,89.84 -125.472,133.75 12.113,8.629 24.691,16.25 37.851,22.808 22.461,12.813 47.352,23.672 74.649,32.703 2.781,3.039 6.211,5.661 10.39,7.77 5.512,0 9.852,-0.191 12.973,-0.551 7.93,1.719 14.34,4.301 19.137,7.781 5.863,2.457 11.961,3.118 18.171,2.071 7.258,1.398 12.77,3.668 16.598,6.718 11.051,3.122 15.902,2.61 14.492,-1.531 -2.379,-2.769 -1.172,-4.648 3.629,-5.699 3.832,-0.352 10.551,0.66 20.241,3.129 9.65,2.07 17.26,3.43 22.77,4.101 11.8,-31.101 19.57,-63.75 23.36,-97.968 4.84,-17.621 8.13,-34.383 9.88,-50.282 1.02,-18.351 1.68,-37.5 2.07,-57.531 l 5.71,-1.058 c 5.5,9.691 8.94,19.339 10.35,29.019 2.77,28.36 1.72,55.82 -3.13,82.43 -1.72,13.859 -2.73,29.41 -3.08,46.68 -1.41,6.25 -3.99,16.25 -7.78,30.07 -3.47,13.832 -3.67,24.539 -0.54,32.148 12.11,14.852 37.5,25.082 76.25,30.594 38.71,5.148 66.68,11.906 83.94,20.227 -22.42,3.441 -52.34,3.089 -89.69,-1.047 -37.34,-4.141 -64.1,-2.582 -80.35,4.648 -2.07,2.07 -3.98,4.18 -5.7,6.25 -8.63,28 -17.27,56.129 -25.94,84.488 -4.14,11.051 -7.77,21.09 -10.9,30.122 -6.56,20.699 -11.52,40.031 -15,58 -18.672,40.468 -35.43,82.66 -50.269,126.531 18.988,6.91 55.269,12.808 108.869,17.648 53.55,5.199 89.14,9.692 106.76,13.442 -24.18,7.621 -63.75,10.23 -118.72,7.769 -54.96,-2.379 -92.421,-6.558 -112.46,-12.422 -24.918,61.883 -53.59,122.543 -86.09,181.992 -20.43,27.66 -36.988,55.98 -49.77,85 10,2.47 21.801,4.18 35.239,5.2 21.09,5.19 43.051,10.04 65.859,14.53 33.16,-1.72 60.152,4.3 80.902,18.16 -45.32,8.64 -86.8,9.69 -124.46,3.09 -8.668,-1.01 -22.809,-3.98 -42.54,-8.79 -19.679,-4.88 -33.16,-6.4 -40.429,-4.65 l -1.012,2.58 c -23.867,31.8 -47.539,61.68 -71.019,89.69 -4.489,7.23 -8.821,14.49 -12.969,21.8 -14.531,13.78 -28.199,27.26 -40.973,40.39 -4.848,5.58 -9.34,9.68 -13.476,12.46 0.347,2.42 0.699,4.84 1.019,7.22 32.848,7.31 66.008,15.39 99.57,24.42 -14.531,0.35 -27.5,-0.86 -38.871,-3.67 -17.66,1.05 -33.871,0.39 -48.75,-2.07 -4.492,-2.04 -10.039,-4.26 -16.601,-6.72 -5.547,1.01 -10.348,2.77 -14.489,5.19 -9.691,6.88 -20.75,15.55 -33.25,25.94 8.321,-9.38 13.52,-20.74 15.59,-34.26 -48.359,-11.72 -97.3,-23.98 -146.718,-36.79 -38.051,-12.43 -74.332,-25.94 -108.872,-40.43 -0.699,1.36 -1.91,2.07 -3.671,2.07 -1.68,8.63 -3.079,16.25 -4.137,22.81 -5.543,4.18 -9.652,8.67 -12.422,13.48 -5.199,-6.26 -8.121,-14.89 -8.828,-25.94 -0.313,-11.06 -3.281,-20.2 -8.793,-27.46 -3.789,-0.36 -8.117,-1.41 -12.969,-3.13 -10.738,-7.58 -21.789,-15.39 -33.199,-23.32 -17.621,-13.12 -34.883,-27.65 -51.832,-43.55 -9.34,-5.86 -19.18,-12.46 -29.539,-19.73 -18.668,-20.35 -37.891,-41.6 -57.57,-63.75 -5.86,-6.21 -11.411,-11.56 -16.61,-16.05 11.449,28.35 24.031,52.18 37.891,71.52 25.898,54.96 59.258,100.62 100.039,136.91 13.871,12.07 29.57,23.13 47.191,33.17 7.93,10.7 16.918,18.83 26.989,24.33 15.55,8.67 31.96,17 49.218,24.92 23.524,14.18 47.543,27.47 72.071,39.89 22.82,9.37 46.679,16.25 71.531,20.74 7.262,3.48 14.719,6.76 22.34,9.88 21.05,5.2 43.871,7.58 68.398,7.27 35.973,1.37 70,5.35 102.152,11.91 -68.441,7.93 -131.878,6.06 -190.281,-5.7 -19.371,-2.42 -36.988,-5.7 -52.847,-9.84 -4.532,-3.48 -8.872,-6.41 -12.973,-8.79 -14.879,-4.89 -29.219,-9.03 -43.078,-12.5 -16.571,-6.88 -31.102,-14.14 -43.52,-21.76 -34.57,-14.85 -66.562,-30.94 -95.941,-48.24 -15.192,-11.72 -28.512,-24.18 -39.918,-37.31 C 146.762,1219.14 86.7617,1130.16 42.5391,1013.36 15.5508,938.32 1.37109,864.379 0,791.41" /><path
         id="path16"
         style="fill:#283859;fill-opacity:1;fill-rule:evenodd;stroke:none"
         d="m 82.9688,985.859 c 12.7695,18.321 28.3592,33.361 46.6402,45.121 54.61,58.4 114.063,106.79 178.36,145.15 3.121,-39.72 7.769,-78.43 14.019,-116.13 5.551,-21.41 11.41,-41.99 17.621,-61.68 2.071,-3.48 3.481,-7.968 4.18,-13.48 0.313,-2.07 -1.449,-4.328 -5.199,-6.75 -4.18,-1.02 -8.32,-2.07 -12.5,-3.09 -20.352,-11.801 -40.781,-23.711 -61.129,-35.82 -31.481,-20.739 -61.871,-43.871 -91.289,-69.45 l -6.172,1.051 c -4.879,22.11 -11.051,45.981 -18.672,71.52 0,4.5 -1.598,14.34 -4.687,29.578 -2.77,15.191 -5.161,25.391 -7.262,30.581 -3.438,-0.7 -5.899,-1.37 -7.27,-2.07 0.7,-12.812 0.7,-29.218 0,-49.261 -0.308,-20.43 -1.019,-37.5 -2.07,-51.328 0,-9.332 1.41,-21.602 4.141,-36.789 2.808,-15.59 3.281,-27.5 1.601,-35.782 -7.972,-12.82 -17.66,-24.929 -29.062,-36.289 C 89.0195,767.77 75.6992,743.59 64.3008,718.359 c -7.582,40.039 -10.1992,83.442 -7.7813,130.082 0,10.739 0.1993,21.289 0.5118,31.637 1.3671,38.043 10.039,73.281 25.9375,105.781 M 75.6992,684.648 c 6.9219,8.282 15.711,15.704 26.4488,22.262 15.551,16.61 30.743,34.262 45.622,52.93 21.101,-44.61 43.359,-88.82 66.878,-132.731 4.84,-7.269 10.192,-15.589 16.051,-24.918 2.781,-2.39 5.75,-3.992 8.832,-4.652 18.321,-18.668 33.199,-39.769 44.61,-63.238 C 260.98,511.129 241.25,484.488 225,454.41 214.648,431.988 202.891,409.488 189.77,387.031 140,460.27 105.43,540.16 86.0508,626.559 c -2.7305,7.269 -6.211,16.601 -10.3516,28.011 -4.1406,11.41 -4.1406,21.41 0,30.078 M 262.891,627.621 c -7.621,13.117 -16.602,25.699 -26.993,37.848 -16.918,33.16 -30.937,67.73 -41.988,103.672 -8.64,8.98 -12.781,18.519 -12.461,28.519 3.821,12.11 9.68,19.371 17.653,21.789 1.058,4.141 2.418,7.27 4.136,9.301 20.742,17.66 42.703,33.711 65.821,48.199 25.632,25.942 56.562,44.61 92.851,56.02 11.371,-30.391 24.031,-60.508 37.86,-90.199 8.589,-25.579 18.82,-52.032 30.539,-79.329 9.382,-15.55 18.011,-30.589 25.941,-45.082 4.18,-10.39 8.672,-20.078 13.48,-29.058 -0.351,-3.481 -1.371,-5.551 -3.089,-6.211 -12.461,-8.641 -25.942,-16.961 -40.43,-24.891 -40.121,-26.289 -79.531,-57.73 -118.242,-94.371 -18.629,18.32 -33.707,39.57 -45.078,63.793 m 216.168,181.438 c -7.258,10.043 -14.137,20.941 -20.739,32.66 -3.75,13.511 -7.769,26.09 -11.91,37.851 -5.859,11.41 -11.41,23.668 -16.609,36.801 -2.071,4.488 -5.5,11.289 -10.352,20.231 -4.84,8.988 -7.969,15.546 -9.328,19.726 2.07,5.512 9.84,11.371 23.32,17.621 13.508,6.25 23.161,10.5 29.059,12.961 30.738,14.18 63.441,27.47 97.969,39.93 64.652,20.74 130.312,39.06 197.031,54.92 18.672,-24.18 34.77,-49.06 48.199,-74.65 4.852,-9.301 11.41,-19.532 19.731,-30.59 17.269,-29.719 31.949,-60.149 44.058,-91.25 12.813,-18.981 21.453,-39.571 25.942,-61.68 -88.828,-13.512 -173.008,-32.852 -252.539,-58.078 -38.711,-16.961 -77.77,-32.66 -117.192,-47.153 -20.039,30.391 -35.578,60.621 -46.64,90.7 M 561.02,666.48 c 5.152,4.848 20.89,12.622 47.179,23.36 26.602,10.359 44.379,17.461 53.36,21.211 29.73,9.687 58.089,18.828 85.043,27.5 19.378,4.847 38.046,8.789 56.019,11.918 11.758,5.859 23.828,12.652 36.289,20.191 7.93,5.199 19.328,9.219 34.18,11.961 14.879,2.77 27.14,3.981 36.832,3.629 15.547,-29.371 27.308,-59.801 35.277,-91.25 6.211,-14.84 13.281,-28.32 21.211,-40.43 4.488,-16.25 9.211,-31.8 14.02,-46.679 2.422,-5.192 5.351,-9.692 8.832,-13.481 2.379,-10.39 4.289,-19.531 5.66,-27.461 11.058,-24.57 19.058,-51.168 23.868,-79.84 -58.052,-15.23 -114.22,-33.16 -168.52,-53.91 -18.981,-10.39 -39.372,-20.929 -61.129,-31.64 -12.11,-7.61 -24.219,-12.969 -36.289,-16.09 -5.192,6.25 -9.532,12.113 -12.973,17.621 -8.32,6.25 -15.231,12.808 -20.738,19.719 -8.672,12.07 -16.762,24.89 -24.371,38.363 -12.071,13.129 -22.969,26.598 -32.661,40.43 -15.937,26.289 -32.699,51.019 -50.308,74.179 -12.071,20.348 -25.039,41.098 -38.91,62.188 -2.731,4.14 -6.371,8.48 -10.86,12.972 -2.422,5.508 -2.769,10.7 -1.011,15.539 m 173.671,443.79 c -29.421,-3.43 -58.089,-10 -86.062,-19.68 -53.59,-11.06 -105.469,-25.08 -155.539,-42 -33.211,-15.54 -67.039,-28.16 -101.641,-37.85 -18.988,48.05 -32.66,98.01 -40.937,149.85 -4.852,10.74 -7.973,22.26 -9.34,34.76 4.488,10.7 13.828,16.25 28.008,16.56 64.961,32.47 135.621,56.49 212.031,72.07 10.738,4.14 22.5,5.86 35.238,5.16 7.961,-4.8 17.813,-17.23 29.571,-37.3 11.75,-20.04 21.089,-34.73 28,-44.07 26.601,-30.78 46.8,-63.28 60.671,-97.5 M 0,791.41 C 1.76172,685.66 23.7109,587.5 65.8594,496.949 71.3711,487.621 76.25,478.441 80.3516,469.488 87.9688,451.84 94.6914,434.57 100.59,417.66 c 9.332,-14.57 18.672,-29.219 28,-44.109 19.691,-39.063 44.07,-74.84 73.09,-107.34 6.601,-3.789 11.949,-7.77 16.09,-11.871 2.742,-3.828 4.652,-7.309 5.71,-10.391 6.911,-4.847 14.02,-9.539 21.25,-14.027 6.559,-8.981 13.668,-16.91 21.29,-23.832 6.871,-4.141 12.929,-7.809 18.121,-10.891 16.25,-11.758 32.66,-25.59 49.257,-41.488 13.122,-9.691 28.012,-17.621 44.571,-23.832 7.621,-5.539 13.32,-10.188 17.109,-14.02 11.402,-5.55 35.231,-17.4606 71.563,-35.7379 36.289,-18.0117 59.609,-29.5703 69.961,-34.7695 3.519,-2.0703 8.828,-4.6524 16.097,-7.7735 10,1.3711 11.602,3.2813 4.641,5.7032 -25.891,24.8789 -65.82,55.8203 -119.762,92.8087 -53.558,36.961 -93.476,67.39 -119.726,91.25 -29.731,33.172 -57.93,67.23 -84.532,102.148 -6.211,5.512 -13.519,12.621 -21.761,21.211 -7.969,8.68 -10.188,17.699 -6.758,27 1.719,1.051 4.34,3.43 7.777,7.262 13.473,11.41 26.801,25.078 39.922,40.937 5.512,10.743 12.07,21.09 19.691,31.09 5.899,3.524 9.528,4.891 10.899,4.184 7.609,7.617 14.719,15.039 21.289,22.308 6.172,7.571 16.402,7.418 30.543,-0.55 2.457,-3.442 5.738,-7.071 9.848,-10.86 3.511,-2.422 8.82,-5 16.089,-7.769 3.121,-4.18 6.25,-8.129 9.34,-11.961 6.211,-7.219 19.531,-20.891 39.922,-40.93 20.391,-20.039 34.758,-32.66 43,-37.859 -12.422,17.269 -31.601,40.828 -57.5,70.508 -25.93,30.082 -44.601,53.562 -56.012,70.511 11.051,12.418 22.461,23.711 34.219,33.711 5.551,4.84 11.563,11.25 18.121,19.18 4.141,2.418 8.321,4.84 12.461,7.269 3.129,5.149 7.07,10.192 11.961,15 l 9.84,2.61 c 3.437,1.719 6.41,4.648 8.789,8.832 5.551,0.707 11.25,2.066 17.109,4.137 9.02,8.281 18.321,15 28.012,20.203 5.539,2.808 10.738,4.687 15.539,5.699 2.781,0 7.11,-1.52 12.969,-4.652 3.793,-3.438 12.109,-15.387 24.891,-35.778 12.769,-20.39 22.609,-34.883 29.57,-43.511 9.64,-14.891 21.558,-31.649 35.738,-50.321 36.992,-44.25 76.094,-88.508 117.192,-132.73 C 694.922,341.762 671.09,322.73 644.488,307.191 631.68,295.781 619.73,282.148 608.672,266.211 578.98,233.75 553.238,196.25 531.449,153.711 l -2.621,-6.211 c -3.129,-7.621 -5.508,-16.449 -7.226,-26.449 1.718,-4.141 4.097,-8.473 7.226,-12.961 l 5.742,-1.059 c 13.09,19.059 26.602,38.75 40.391,59.141 15.59,19.027 31.801,38.668 48.789,59.098 5.859,5.199 11.91,10.199 18.129,15.039 13.473,14.851 27.851,29.179 43.043,43.011 5.156,7.621 12.578,15.231 22.269,22.852 12.11,8.238 23.707,15.707 34.758,22.269 9.653,-8.281 19.891,-15.711 30.59,-22.269 5.859,-3.121 12.77,-6.602 20.699,-10.391 6.25,-6.91 12.313,-13.832 18.172,-20.742 6.559,-4.488 14.879,-9.648 24.918,-15.551 6.172,-5.539 11.91,-11.558 17.07,-18.117 16.25,-10.039 32.653,-19.383 49.262,-28.051 l 3.121,2.11 c -43.203,45.23 -85,89.84 -125.472,133.75 12.113,8.629 24.691,16.25 37.851,22.808 22.461,12.813 47.352,23.672 74.649,32.703 2.781,3.039 6.211,5.661 10.39,7.77 5.512,0 9.852,-0.191 12.973,-0.551 7.93,1.719 14.34,4.301 19.137,7.781 5.863,2.457 11.961,3.118 18.171,2.071 7.258,1.398 12.77,3.668 16.598,6.718 11.051,3.122 15.902,2.61 14.492,-1.531 -3.441,-2.418 -2.23,-4.328 3.629,-5.699 3.832,-0.352 10.551,0.66 20.241,3.129 9.65,2.07 17.26,3.43 22.77,4.101 11.8,-31.101 19.57,-63.75 23.36,-97.968 4.84,-17.621 8.13,-34.383 9.88,-50.282 1.02,-18.351 1.68,-37.5 2.07,-57.531 l 5.71,-1.058 c 5.5,9.691 8.94,19.339 10.35,29.019 2.77,28.36 1.72,55.82 -3.13,82.43 -1.72,13.859 -2.73,29.41 -3.08,46.68 -1.41,6.25 -3.99,16.25 -7.78,30.07 -3.47,13.832 -3.67,24.539 -0.54,32.148 12.11,14.852 37.5,25.082 76.25,30.594 38.71,5.148 66.68,11.906 83.94,20.227 -22.42,3.441 -52.34,3.089 -89.69,-1.047 -37.34,-4.141 -64.1,-2.582 -80.35,4.648 l -5.7,6.25 c -8.63,28 -17.27,56.129 -25.94,84.488 -4.14,11.051 -7.77,21.09 -10.9,30.122 -6.56,20.699 -11.52,40.031 -15,58 -18.672,40.468 -35.43,82.66 -50.269,126.531 18.988,6.91 55.269,12.808 108.869,17.648 53.55,5.199 89.14,9.692 106.76,13.442 -24.18,7.621 -63.75,10.23 -118.72,7.769 -54.96,-2.379 -92.421,-6.558 -112.46,-12.422 -24.918,61.883 -53.59,122.543 -86.09,181.992 -20.43,27.66 -36.988,55.98 -49.77,85 10,2.47 21.801,4.18 35.239,5.2 21.09,5.19 43.051,10.04 65.859,14.53 33.16,-1.72 60.152,4.3 80.902,18.16 -45.32,8.64 -86.8,9.69 -124.46,3.09 -8.668,-1.01 -22.809,-3.98 -42.54,-8.79 -19.679,-4.88 -33.16,-6.4 -40.429,-4.65 l -1.012,2.58 c -23.867,31.8 -47.539,61.68 -71.019,89.69 -4.489,7.23 -8.821,14.49 -12.969,21.8 -14.531,13.78 -28.199,27.26 -40.973,40.39 -4.848,5.58 -9.34,9.68 -13.476,12.46 0.347,2.42 0.699,4.84 1.019,7.22 32.848,7.31 66.008,15.39 99.57,24.42 -14.531,0.35 -27.5,-0.86 -38.871,-3.67 -17.66,1.05 -33.871,0.39 -48.75,-2.07 -4.492,-2.04 -10.039,-4.26 -16.601,-6.72 -6.25,1.4 -11.059,3.12 -14.489,5.19 -9.691,6.88 -20.75,15.55 -33.25,25.94 8.321,-9.38 13.52,-20.74 15.59,-34.26 -48.359,-11.72 -97.3,-23.98 -146.718,-36.79 -38.051,-12.43 -74.332,-25.94 -108.872,-40.43 l -3.671,2.07 c -1.68,8.63 -3.079,16.25 -4.137,22.81 -5.543,4.18 -9.652,8.67 -12.422,13.48 -5.199,-6.26 -8.121,-14.89 -8.828,-25.94 -0.313,-11.06 -3.281,-20.2 -8.793,-27.46 -3.789,-0.36 -8.117,-1.41 -12.969,-3.13 -10.738,-7.58 -21.789,-15.39 -33.199,-23.32 -17.621,-13.12 -34.883,-27.65 -51.832,-43.55 -9.34,-5.86 -19.18,-12.46 -29.539,-19.73 -18.668,-20.35 -37.891,-41.6 -57.57,-63.75 -5.86,-6.21 -11.411,-11.56 -16.61,-16.05 11.449,28.35 24.031,52.18 37.891,71.52 25.898,54.96 59.258,100.62 100.039,136.91 13.871,12.07 29.57,23.13 47.191,33.17 7.93,10.7 16.918,18.83 26.989,24.33 15.55,8.67 31.96,17 49.218,24.92 23.524,14.18 47.543,27.47 72.071,39.89 22.82,9.37 46.679,16.25 71.531,20.74 7.262,3.48 14.719,6.76 22.34,9.88 21.05,5.2 43.871,7.58 68.398,7.27 35.973,1.37 70,5.35 102.152,11.91 -68.441,7.93 -131.878,6.06 -190.281,-5.7 -19.371,-2.42 -36.988,-5.7 -52.847,-9.84 -4.532,-3.48 -8.872,-6.41 -12.973,-8.79 -14.879,-4.89 -29.219,-9.03 -43.078,-12.5 -16.571,-6.88 -31.102,-14.14 -43.52,-21.76 -34.57,-14.85 -66.562,-30.94 -95.941,-48.24 -15.192,-11.72 -28.512,-24.18 -39.918,-37.31 C 146.762,1219.14 86.7617,1130.16 42.5391,1013.36 15.5508,938.32 1.37109,864.379 0,791.41" /><path
         id="path18"
         style="fill:#7ab5dc;fill-opacity:1;fill-rule:evenodd;stroke:none"
         d="m 514.34,1413.09 -5.711,-2.58 5.711,2.58" /><path
         id="path20"
         style="fill:#297abd;fill-opacity:1;fill-rule:nonzero;stroke:none"
         d="m 1361.8,1500.08 h 141.09 V 503.361 H 1361.8 Z m 337.81,-127.97 v -286.56 h 540.94 V 957.578 H 1699.61 V 503.359 h -139.69 v 996.721 h 771.72 v -127.97 z" /><path
         id="path22"
         style="fill:#297abd;fill-opacity:1;fill-rule:nonzero;stroke:none"
         d="M 3097.27,503.359 2721.02,914.922 2340.23,503.359 h -183.75 l 470.47,511.561 -448.43,485.16 h 186.71 l 355.79,-386.72 358.75,386.72 h 185.15 l -449.84,-485.16 464.53,-511.561 z" /><path
         id="path24"
         style="fill:#297abd;fill-opacity:1;fill-rule:nonzero;stroke:none"
         d="m 1634.18,137.301 h -136.25 v 41.41 h 179.53 c 1.88,-16.68 2.81,-28.121 2.81,-34.371 0,-43.559 -17.42,-77.6603 -52.18,-102.3517 C 1597.03,20 1558.63,9.01953 1512.93,9.01953 c -55.74,0 -100.23,13.78907 -133.44,41.41017 -34.8,28.4414 -52.19,68.5193 -52.19,120.3083 0,50.082 16.61,89.852 49.85,119.223 33.2,29.449 77.38,44.219 132.5,44.219 41.01,0 75.35,-7.809 102.97,-23.442 32.26,-18.117 54.06,-52.148 65.31,-102.027 h -46.09 c -7.19,29.769 -20.43,51.328 -39.69,64.687 -19.3,13.321 -46.64,20 -82.03,20 -43.24,0 -76.96,-10.859 -101.1,-32.5 -24.06,-21.558 -36.09,-51.488 -36.09,-89.687 0,-38.871 12.19,-68.832 36.56,-89.8399 24.46,-20.9414 58.95,-31.4102 103.44,-31.4102 33.83,0 62.42,7.9688 85.78,23.9102 23.32,15.9297 35.16,37.0699 35.47,63.4299 z m 305.86,30.629 c 24.45,-15.43 36.72,-38.668 36.72,-69.6917 V 12.3008 h -45.16 v 84.539 c 0,32.5702 -25.7,48.8982 -77.03,48.8982 H 1739.88 V 12.3008 h -45.15 V 330.898 h 164.06 c 81.76,0 122.66,-29.449 122.66,-88.277 0,-33.562 -13.83,-58.441 -41.41,-74.691 z m -80.31,122.191 H 1739.88 V 187.148 h 112.35 c 25,0 44.88,4.223 59.68,12.653 16.25,9.379 24.38,23.168 24.38,41.41 0,32.578 -25.55,48.91 -76.56,48.91 z" /><path
         id="path26"
         style="fill:#297abd;fill-opacity:1;fill-rule:nonzero;stroke:none"
         d="M 2296.72,52.6211 C 2264.3,23.5508 2220.55,9.01953 2165.47,9.01953 c -55.43,0 -99.22,14.46097 -131.41,43.44137 -32.11,28.9493 -48.12,68.5191 -48.12,118.7501 0,50.078 16.44,89.258 49.37,117.5 31.64,27.187 75.04,40.777 130.16,40.777 55.08,0 98.63,-13.59 130.62,-40.777 32.89,-28.242 49.38,-67.422 49.38,-117.5 0,-49.922 -16.25,-89.4493 -48.75,-118.5899 z M 2265,258.398 c -23.44,20.192 -56.64,30.313 -99.53,30.313 -42.93,0 -76.02,-10.231 -99.22,-30.621 -23.13,-20.32 -34.69,-49.301 -34.69,-86.879 0,-37.621 11.72,-67.262 35.16,-88.9102 23.51,-21.5625 56.44,-32.3399 98.75,-32.3399 42.89,0 76.09,10.6993 99.53,32.1875 23.52,21.4416 35.31,51.1326 35.31,89.0626 0,37.891 -11.79,66.949 -35.31,87.187 z" /><path
         id="path28"
         style="fill:#297abd;fill-opacity:1;fill-rule:nonzero;stroke:none"
         d="M 2606.64,37.6211 C 2582.89,18.5508 2547.19,9.01953 2499.61,9.01953 c -97.81,0 -146.72,41.96097 -146.72,125.94147 v 195.937 h 45.16 V 134.961 c 0,-28.871 8.04,-50.2696 24.22,-64.2227 16.13,-13.8594 41.91,-20.7774 77.34,-20.7774 35.08,0 60.94,7.0274 77.5,21.0899 15.94,13.1289 23.91,33.9492 23.91,62.5002 v 197.347 h 45.15 V 134.02 c 0,-43.2387 -13.2,-75.3911 -39.53,-96.3989 z" /><path
         id="path30"
         style="fill:#297abd;fill-opacity:1;fill-rule:nonzero;stroke:none"
         d="m 2904.69,161.84 c -23.13,-12.93 -51.96,-19.379 -86.41,-19.379 H 2710.16 V 12.3008 H 2665 V 330.898 h 158.44 c 84.57,0 126.87,-31.796 126.87,-95.308 0,-32.621 -15.23,-57.192 -45.62,-73.75 z m -78.44,128.281 H 2710.16 V 183.398 h 116.56 c 22.5,0 40.82,4.372 55,13.122 15.31,9.378 22.97,22.23 22.97,38.601 0,36.641 -26.17,55 -78.44,55 z" /><path
         id="path32"
         style="fill:#297abd;fill-opacity:1;fill-rule:nonzero;stroke:none"
         d="m 3123.09,12.3086 h 45.1602 v 318.59 H 3123.09 Z" /><path
         id="path34"
         style="fill:#297abd;fill-opacity:1;fill-rule:nonzero;stroke:none"
         d="M 3446.88,12.3008 3231.56,259.488 V 12.3008 h -45.15 V 330.898 h 40.47 c 27.26,-32.5 63.47,-74.179 108.59,-125 54.45,-61.058 90.19,-101.328 107.19,-120.7769 V 330.898 h 45 V 12.3008 Z" /><path
         id="path36"
         style="fill:#297abd;fill-opacity:1;fill-rule:nonzero;stroke:none"
         d="m 3797.27,241.211 c -13.75,18.75 -29.34,32.109 -46.72,40.16 -17.43,8.008 -39.14,12.027 -65.16,12.027 -42.3,0 -75.74,-11.058 -100.31,-33.128 -24.61,-22.11 -36.88,-51.79 -36.88,-89.059 0,-36.992 11.64,-66.481 35,-88.4415 23.32,-21.8711 55.67,-32.8086 97.03,-32.8086 24.77,0 46.02,4.0586 63.75,12.1875 17.7,8.1211 34.22,21.6016 49.54,40.4726 l 38.59,-23.1327 C 3793.24,32.5 3742.77,9.01953 3680.7,9.01953 c -53.86,0 -96.95,14.46097 -129.22,43.44137 -32.3,28.9493 -48.43,67.8911 -48.43,116.8791 0,50.39 16.6,90.461 49.84,120.148 33.2,29.774 77.38,44.692 132.5,44.692 64.57,0 114.57,-23.36 150,-70 z" /><path
         id="path38"
         style="fill:#297abd;fill-opacity:1;fill-rule:nonzero;stroke:none"
         d="m 3883.67,11.3711 c -15.12,0 -22.65,4.5273 -22.65,13.5898 v 13.5899 c 0,9.1484 7.53,13.75 22.65,13.75 15,0 22.5,-4.6016 22.5,-13.75 V 24.9609 c 0,-9.0625 -7.5,-13.5898 -22.5,-13.5898 z" /></g></g></svg>