<?xml version="1.0" encoding="UTF-8" standalone="no"?>
<svg
   xmlns:dc="http://purl.org/dc/elements/1.1/"
   xmlns:cc="http://creativecommons.org/ns#"
   xmlns:rdf="http://www.w3.org/1999/02/22-rdf-syntax-ns#"
   xmlns:svg="http://www.w3.org/2000/svg"
   xmlns="http://www.w3.org/2000/svg"
   viewBox="0 0 497.33334 193.33333"
   height="193.33333"
   width="497.33334"
   xml:space="preserve"
   id="svg2"
   version="1.1"><metadata
     id="metadata8"><rdf:RDF><cc:Work
         rdf:about=""><dc:format>image/svg+xml</dc:format><dc:type
           rdf:resource="http://purl.org/dc/dcmitype/StillImage" /></cc:Work></rdf:RDF></metadata><defs
     id="defs6" /><g
     transform="matrix(1.3333333,0,0,-1.3333333,0,193.33333)"
     id="g10"><g
       transform="scale(0.1)"
       id="g12"><path
         id="path14"
         style="fill:#f8e14a;fill-opacity:1;fill-rule:evenodd;stroke:none"
         d="m 82.9688,954.34 c 12.7695,18.359 28.3592,33.39 46.6402,45.109 54.61,58.441 114.063,106.841 178.36,145.201 3.121,-39.77 7.769,-78.48 14.019,-116.13 5.551,-21.45 11.41,-42.04 17.621,-61.719 2.071,-3.481 3.481,-7.973 4.18,-13.481 0.313,-2.07 -1.449,-4.34 -5.199,-6.761 -4.18,-1.008 -8.32,-2.071 -12.5,-3.079 -20.352,-11.8 -40.781,-23.679 -61.129,-35.781 -31.481,-20.75 -61.871,-43.871 -91.289,-69.5 -1.684,1.063 -3.793,1.371 -6.172,1.063 -4.879,22.109 -11.051,45.968 -18.672,71.519 0,4.489 -1.598,14.34 -4.687,29.571 -2.77,15.199 -5.161,25.429 -7.262,30.589 -2.777,-1.371 -5.199,-2.07 -7.27,-2.07 0.7,-12.781 0.7,-29.18 0,-49.262 -0.308,-20.39 -1.019,-37.5 -2.07,-51.289 0,-9.371 1.41,-21.64 4.141,-36.84 2.808,-15.539 3.281,-27.5 1.601,-35.781 -7.972,-12.769 -17.66,-24.879 -29.062,-36.289 -15.1995,-23.16 -28.5198,-47.34 -39.9182,-72.57 -7.582,40.07 -10.1992,83.43 -7.7813,130.109 0,10.75 0.1993,21.25 0.5118,31.641 1.3671,38.012 10.039,73.25 25.9375,105.75 M 75.6992,653.121 c 6.9219,8.289 15.711,15.75 26.4488,22.309 15.551,16.601 30.743,34.218 45.622,52.89 21.101,-44.609 43.359,-88.832 66.878,-132.73 4.84,-7.27 10.192,-15.551 16.051,-24.93 2.781,-2.379 5.75,-3.941 8.832,-4.64 18.321,-18.68 33.199,-39.731 44.61,-63.25 C 260.98,479.609 241.25,453.012 225,422.891 214.648,400.469 202.891,377.969 189.77,355.512 140,428.789 105.43,508.672 86.0508,595.039 c -2.7305,7.262 -6.211,16.641 -10.3516,28.012 -4.1406,11.398 -4.1406,21.437 0,30.07 M 262.891,596.09 c -7.621,13.129 -16.602,25.75 -26.993,37.859 -16.918,33.16 -30.937,67.77 -41.988,103.672 -8.64,9.02 -12.781,18.508 -12.461,28.508 3.821,12.152 9.68,19.383 17.653,21.801 1.058,4.14 2.418,7.269 4.136,9.34 20.742,17.609 42.703,33.71 65.821,48.199 25.632,25.902 56.562,44.57 92.851,56.011 11.371,-30.429 24.031,-60.5 37.86,-90.191 8.589,-25.629 18.82,-52.07 30.539,-79.379 9.382,-15.539 18.011,-30.582 25.941,-45.07 4.18,-10.36 8.672,-20.039 13.48,-29.031 -0.351,-3.508 -1.371,-5.539 -3.089,-6.25 -12.461,-8.629 -25.942,-16.911 -40.43,-24.879 -40.121,-26.289 -79.531,-57.7 -118.242,-94.379 -18.629,18.32 -33.707,39.578 -45.078,63.789 m 216.168,181.488 c -7.258,10 -14.137,20.902 -20.739,32.652 -3.75,13.481 -7.769,26.059 -11.91,37.821 -5.859,11.437 -11.41,23.711 -16.609,36.828 -2.071,4.5 -5.5,11.25 -10.352,20.199 -4.84,8.981 -7.969,15.543 -9.328,19.723 2.07,5.508 9.84,11.41 23.32,17.621 13.508,6.25 23.161,10.547 29.059,12.969 30.738,14.179 63.441,27.461 97.969,39.918 64.652,20.741 130.312,39.071 197.031,54.961 18.672,-24.18 34.77,-49.06 48.199,-74.68 4.852,-9.301 11.41,-19.5 19.731,-30.551 17.269,-29.769 31.949,-60.16 44.058,-91.289 12.813,-18.98 21.453,-39.57 25.942,-61.68 -88.828,-13.48 -173.008,-32.851 -252.539,-58.09 -38.711,-16.91 -77.77,-32.652 -117.192,-47.14 -20.039,30.43 -35.578,60.621 -46.64,90.738 M 561.02,635 c 5.152,4.801 20.89,12.578 47.179,23.32 26.602,10.391 44.379,17.461 53.36,21.25 29.73,9.649 58.089,18.828 85.043,27.5 19.378,4.809 38.046,8.789 56.019,11.879 11.758,5.891 23.828,12.653 36.289,20.231 7.93,5.199 19.328,9.179 34.18,11.949 14.879,2.742 27.14,3.949 36.832,3.601 15.547,-29.378 27.308,-59.769 35.277,-91.21 6.211,-14.891 13.281,-28.36 21.211,-40.469 4.488,-16.25 9.211,-31.801 14.02,-46.68 2.422,-5.16 5.351,-9.652 8.832,-13.48 2.379,-10.352 4.289,-19.532 5.66,-27.461 11.058,-24.532 19.058,-51.168 23.868,-79.84 -58.052,-15.238 -114.22,-33.168 -168.52,-53.91 -18.981,-10.348 -39.372,-20.942 -61.129,-31.641 -12.11,-7.617 -24.219,-12.969 -36.289,-16.059 -5.192,6.219 -9.532,12.11 -12.973,17.622 -8.32,6.207 -15.231,12.777 -20.738,19.73 -8.672,12.066 -16.762,24.84 -24.371,38.359 -12.071,13.118 -22.969,26.598 -32.661,40.387 -15.937,26.293 -32.699,51.012 -50.308,74.184 -12.071,20.386 -25.039,41.129 -38.91,62.218 -2.731,4.141 -6.371,8.481 -10.86,12.969 -2.422,5.512 -2.769,10.672 -1.011,15.551 m 173.671,443.79 c -29.421,-3.48 -58.089,-10.04 -86.062,-19.69 -53.59,-11.05 -105.469,-25.08 -155.539,-42.03 -33.211,-15.55 -67.039,-28.121 -101.641,-37.808 -18.988,48.038 -32.66,97.968 -40.937,149.798 -4.852,10.74 -7.973,22.31 -9.34,34.77 4.488,10.7 13.828,16.25 28.008,16.56 64.961,32.5 135.621,56.52 212.031,72.07 10.738,4.18 22.5,5.86 35.238,5.2 7.961,-4.85 17.813,-17.27 29.571,-37.31 11.75,-20.08 21.089,-34.76 28,-44.06 26.601,-30.82 46.8,-63.28 60.671,-97.5 M 0,759.922 C 1.76172,654.141 23.7109,556.02 65.8594,465.43 c 5.5117,-9.301 10.3906,-18.52 14.4922,-27.461 7.6172,-17.66 14.3398,-34.918 20.2384,-51.84 9.332,-14.527 18.672,-29.219 28,-44.059 19.691,-39.101 44.07,-74.879 73.09,-107.34 6.601,-3.832 11.949,-7.781 16.09,-11.921 2.742,-3.829 4.652,-7.297 5.71,-10.348 6.911,-4.879 14.02,-9.531 21.25,-14.02 6.559,-8.992 13.668,-16.961 21.29,-23.871 6.871,-4.14 12.929,-7.769 18.121,-10.898 16.25,-11.762 32.66,-25.551 49.257,-41.481 13.122,-9.691 28.012,-17.621 44.571,-23.8316 7.621,-5.5508 13.32,-10.1992 17.109,-13.9805 11.402,-5.5508 35.231,-17.4687 71.563,-35.7891 36.289,-17.9687 59.609,-29.5703 69.961,-34.7617 3.519,-2.0664 8.828,-4.64841 16.097,-7.77732 10,1.41016 11.602,3.28906 4.641,5.71092 -25.891,24.8789 -65.82,55.8164 -119.762,92.8083 -53.558,36.989 -93.476,67.418 -119.726,91.25 -29.731,33.2 -57.93,67.27 -84.532,102.192 -6.211,5.508 -13.519,12.578 -21.761,21.207 -7.969,8.672 -10.188,17.66 -6.758,26.953 2.078,1.758 4.648,4.137 7.777,7.269 13.473,11.438 26.801,25.079 39.922,40.938 5.512,10.742 12.07,21.133 19.691,31.133 5.188,2.769 8.829,4.179 10.899,4.179 7.609,7.61 14.719,15 21.289,22.258 6.172,7.621 16.402,7.461 30.543,-0.539 2.457,-3.441 5.738,-7.07 9.848,-10.82 3.511,-2.469 8.82,-5.039 16.089,-7.82 3.121,-4.141 6.25,-8.122 9.34,-11.911 6.211,-7.269 19.531,-20.937 39.922,-40.98 20.391,-20.039 34.758,-32.649 43,-37.809 -12.422,17.231 -31.601,40.782 -57.5,70.469 -25.93,30.082 -44.601,53.59 -56.012,70.512 11.051,12.461 22.461,23.711 34.219,33.711 5.551,4.84 11.563,11.25 18.121,19.218 4.141,2.418 8.321,4.801 12.461,7.219 3.129,5.199 7.07,10.199 11.961,15.039 3.078,0.672 6.359,1.563 9.84,2.582 3.437,1.758 6.41,4.649 8.789,8.828 5.551,0.704 11.25,2.071 17.109,4.141 9.02,8.32 18.321,15.039 28.012,20.191 5.539,2.821 10.738,4.731 15.539,5.75 2.781,0 7.11,-1.57 12.969,-4.691 3.793,-3.437 12.109,-15.391 24.891,-35.738 12.769,-20.43 22.609,-34.922 29.57,-43.563 9.64,-14.84 21.558,-31.636 35.738,-50.308 C 635.82,421.211 674.922,376.949 716.02,332.699 694.922,310.27 671.09,291.211 644.488,275.66 631.68,264.301 619.73,250.621 608.672,234.73 c -29.692,-32.5 -55.434,-70 -77.223,-112.539 -0.711,-1.019 -1.57,-3.089 -2.621,-6.171 -3.129,-7.622 -5.508,-16.4497 -7.226,-26.4887 1.718,-4.1016 4.097,-8.4415 7.226,-12.9297 l 5.742,-1.0508 c 13.09,19.0195 26.602,38.7112 40.391,59.1402 15.59,18.981 31.801,38.668 48.789,59.059 5.859,5.199 11.91,10.23 18.129,15.039 13.473,14.883 27.851,29.223 43.043,43.012 5.156,7.609 12.578,15.23 22.269,22.847 12.11,8.282 23.707,15.743 34.758,22.301 9.653,-8.32 19.891,-15.738 30.59,-22.301 5.859,-3.128 12.77,-6.597 20.699,-10.347 6.25,-6.961 12.313,-13.871 18.172,-20.75 6.559,-4.492 14.879,-9.68 24.918,-15.539 6.172,-5.551 11.91,-11.602 17.07,-18.172 16.25,-10.039 32.653,-19.371 49.262,-28 l 3.121,2.07 c -43.203,45.27 -85,89.84 -125.472,133.75 12.113,8.629 24.691,16.25 37.851,22.809 22.461,12.812 47.352,23.711 74.649,32.691 2.781,3.09 6.211,5.672 10.39,7.781 5.512,0 9.852,-0.203 12.973,-0.511 7.93,1.679 14.34,4.3 19.137,7.769 5.863,2.422 11.961,3.133 18.171,2.071 7.258,1.371 12.77,3.64 16.598,6.718 11.051,3.133 15.902,2.582 14.492,-1.558 -2.379,-2.731 -1.172,-4.649 3.629,-5.7 3.832,-0.32 10.551,0.7 20.241,3.122 9.65,2.07 17.26,3.437 22.77,4.136 11.8,-31.129 19.57,-63.75 23.36,-98.008 4.84,-17.609 8.13,-34.371 9.88,-50.23 1.02,-18.359 1.68,-37.539 2.07,-57.578 l 5.71,-1.051 c 5.5,9.68 8.94,19.367 10.35,29.059 2.77,28.32 1.72,55.82 -3.13,82.422 -1.72,13.828 -2.73,29.418 -3.08,46.636 -1.41,6.25 -3.99,16.25 -7.78,30.121 -3.47,13.789 -3.67,24.493 -0.54,32.11 12.11,14.883 37.5,25.082 76.25,30.582 38.71,5.199 66.68,11.961 83.94,20.238 -22.42,3.481 -52.34,3.09 -89.69,-1.019 -37.34,-4.141 -64.1,-2.61 -80.35,4.652 -2.07,2.066 -3.98,4.18 -5.7,6.207 -8.63,28.012 -17.27,56.172 -25.94,84.492 -4.14,11.098 -7.77,21.141 -10.9,30.117 -6.56,20.742 -11.52,40.043 -15,58.051 -18.672,40.473 -35.43,82.621 -50.269,126.481 18.988,6.96 55.269,12.82 108.869,17.66 53.55,5.191 89.14,9.691 106.76,13.48 -24.18,7.61 -63.75,10.192 -118.72,7.77 -54.96,-2.379 -92.421,-6.559 -112.46,-12.461 -24.918,61.91 -53.59,122.543 -86.09,181.992 -20.43,27.699 -36.988,55.979 -49.77,85.039 10,2.42 21.801,4.18 35.239,5.2 21.09,5.15 43.051,10.03 65.859,14.53 33.16,-1.76 60.152,4.29 80.902,18.12 -45.32,8.63 -86.8,9.69 -124.46,3.09 -8.668,-1.02 -22.809,-3.95 -42.54,-8.79 -19.679,-4.85 -33.16,-6.41 -40.429,-4.65 l -1.012,2.58 c -23.867,31.79 -47.539,61.72 -71.019,89.69 -4.489,7.26 -8.821,14.49 -12.969,21.79 -14.531,13.83 -28.199,27.31 -40.973,40.43 -4.848,5.55 -9.34,9.69 -13.476,12.42 0.347,2.43 0.699,4.89 1.019,7.27 32.848,7.27 66.008,15.39 99.57,24.37 -14.531,0.36 -27.5,-0.85 -38.871,-3.63 -17.66,1.06 -33.871,0.35 -48.75,-2.07 -4.492,-2.07 -10.039,-4.3 -16.601,-6.72 -5.547,1.02 -10.348,2.74 -14.489,5.16 -9.691,6.91 -20.75,15.58 -33.25,25.94 8.321,-9.34 13.52,-20.75 15.59,-34.22 -48.359,-11.76 -97.3,-24.03 -146.718,-36.84 -38.051,-12.42 -74.332,-25.9 -108.872,-40.43 -0.699,1.41 -1.91,2.07 -3.671,2.07 -1.68,8.64 -3.079,16.25 -4.137,22.82 -5.543,4.17 -9.652,8.67 -12.422,13.47 -5.199,-6.21 -8.121,-14.84 -8.828,-25.9 -0.313,-11.05 -3.281,-20.23 -8.793,-27.46 -3.789,-0.39 -8.117,-1.44 -12.969,-3.12 -10.738,-7.62 -21.789,-15.39 -33.199,-23.32 -17.621,-13.13 -34.883,-27.7 -51.832,-43.56 -9.34,-5.86 -19.18,-12.5 -29.539,-19.72 -18.668,-20.39 -37.891,-41.65 -57.57,-63.75 -5.86,-6.25 -11.411,-11.61 -16.61,-16.1 11.449,28.36 24.031,52.23 37.891,71.53 25.898,54.96 59.258,100.62 100.039,136.91 13.871,12.07 29.57,23.12 47.191,33.16 7.93,10.71 16.918,18.87 26.989,24.38 15.55,8.67 31.96,16.95 49.218,24.88 23.524,14.18 47.543,27.46 72.071,39.92 22.82,9.34 46.679,16.25 71.531,20.75 7.262,3.47 14.719,6.75 22.34,9.88 21.05,5.15 43.871,7.58 68.398,7.22 35.973,1.41 70,5.36 102.152,11.92 -68.441,7.93 -131.878,6.09 -190.281,-5.7 -19.371,-2.39 -36.988,-5.67 -52.847,-9.85 -4.532,-3.44 -8.872,-6.4 -12.973,-8.79 -14.879,-4.88 -29.219,-8.98 -43.078,-12.46 -16.571,-6.91 -31.102,-14.14 -43.52,-21.76 -34.57,-14.88 -66.562,-30.97 -95.941,-48.24 -15.192,-11.76 -28.512,-24.18 -39.918,-37.3 C 146.762,1187.66 86.7617,1098.67 42.5391,981.84 15.5508,906.84 1.37109,832.852 0,759.922" /><path
         id="path16"
         style="fill:#263557;fill-opacity:1;fill-rule:evenodd;stroke:none"
         d="m 82.9688,954.34 c 12.7695,18.359 28.3592,33.39 46.6402,45.109 54.61,58.441 114.063,106.841 178.36,145.201 3.121,-39.77 7.769,-78.48 14.019,-116.13 5.551,-21.45 11.41,-42.04 17.621,-61.719 2.071,-3.481 3.481,-7.973 4.18,-13.481 0.313,-2.07 -1.449,-4.34 -5.199,-6.761 -4.18,-1.008 -8.32,-2.071 -12.5,-3.079 -20.352,-11.8 -40.781,-23.679 -61.129,-35.781 -31.481,-20.75 -61.871,-43.871 -91.289,-69.5 l -6.172,1.063 c -4.879,22.109 -11.051,45.968 -18.672,71.519 0,4.489 -1.598,14.34 -4.687,29.571 -2.77,15.199 -5.161,25.429 -7.262,30.589 -3.438,-0.671 -5.899,-1.371 -7.27,-2.07 0.7,-12.781 0.7,-29.18 0,-49.262 -0.308,-20.39 -1.019,-37.5 -2.07,-51.289 0,-9.371 1.41,-21.64 4.141,-36.84 2.808,-15.539 3.281,-27.5 1.601,-35.781 -7.972,-12.769 -17.66,-24.879 -29.062,-36.289 -15.1995,-23.16 -28.5198,-47.34 -39.9182,-72.57 -7.582,40.07 -10.1992,83.43 -7.7813,130.109 0,10.75 0.1993,21.25 0.5118,31.641 1.3671,38.012 10.039,73.25 25.9375,105.75 M 75.6992,653.121 c 6.9219,8.289 15.711,15.75 26.4488,22.309 15.551,16.601 30.743,34.218 45.622,52.89 21.101,-44.609 43.359,-88.832 66.878,-132.73 4.84,-7.27 10.192,-15.551 16.051,-24.93 2.781,-2.379 5.75,-3.941 8.832,-4.64 18.321,-18.68 33.199,-39.731 44.61,-63.25 C 260.98,479.609 241.25,453.012 225,422.891 214.648,400.469 202.891,377.969 189.77,355.512 140,428.789 105.43,508.672 86.0508,595.039 c -2.7305,7.262 -6.211,16.641 -10.3516,28.012 -4.1406,11.398 -4.1406,21.437 0,30.07 M 262.891,596.09 c -7.621,13.129 -16.602,25.75 -26.993,37.859 -16.918,33.16 -30.937,67.77 -41.988,103.672 -8.64,9.02 -12.781,18.508 -12.461,28.508 3.821,12.152 9.68,19.383 17.653,21.801 1.058,4.14 2.418,7.269 4.136,9.34 20.742,17.609 42.703,33.71 65.821,48.199 25.632,25.902 56.562,44.57 92.851,56.011 11.371,-30.429 24.031,-60.5 37.86,-90.191 8.589,-25.629 18.82,-52.07 30.539,-79.379 9.382,-15.539 18.011,-30.582 25.941,-45.07 4.18,-10.36 8.672,-20.039 13.48,-29.031 -0.351,-3.508 -1.371,-5.539 -3.089,-6.25 -12.461,-8.629 -25.942,-16.911 -40.43,-24.879 -40.121,-26.289 -79.531,-57.7 -118.242,-94.379 -18.629,18.32 -33.707,39.578 -45.078,63.789 m 216.168,181.488 c -7.258,10 -14.137,20.902 -20.739,32.652 -3.75,13.481 -7.769,26.059 -11.91,37.821 -5.859,11.437 -11.41,23.711 -16.609,36.828 -2.071,4.5 -5.5,11.25 -10.352,20.199 -4.84,8.981 -7.969,15.543 -9.328,19.723 2.07,5.508 9.84,11.41 23.32,17.621 13.508,6.25 23.161,10.547 29.059,12.969 30.738,14.179 63.441,27.461 97.969,39.918 64.652,20.741 130.312,39.071 197.031,54.961 18.672,-24.18 34.77,-49.06 48.199,-74.68 4.852,-9.301 11.41,-19.5 19.731,-30.551 17.269,-29.769 31.949,-60.16 44.058,-91.289 12.813,-18.98 21.453,-39.57 25.942,-61.68 -88.828,-13.48 -173.008,-32.851 -252.539,-58.09 -38.711,-16.91 -77.77,-32.652 -117.192,-47.14 -20.039,30.43 -35.578,60.621 -46.64,90.738 M 561.02,635 c 5.152,4.801 20.89,12.578 47.179,23.32 26.602,10.391 44.379,17.461 53.36,21.25 29.73,9.649 58.089,18.828 85.043,27.5 19.378,4.809 38.046,8.789 56.019,11.879 11.758,5.891 23.828,12.653 36.289,20.231 7.93,5.199 19.328,9.179 34.18,11.949 14.879,2.742 27.14,3.949 36.832,3.601 15.547,-29.378 27.308,-59.769 35.277,-91.21 6.211,-14.891 13.281,-28.36 21.211,-40.469 4.488,-16.25 9.211,-31.801 14.02,-46.68 2.422,-5.16 5.351,-9.652 8.832,-13.48 2.379,-10.352 4.289,-19.532 5.66,-27.461 11.058,-24.532 19.058,-51.168 23.868,-79.84 -58.052,-15.238 -114.22,-33.168 -168.52,-53.91 -18.981,-10.348 -39.372,-20.942 -61.129,-31.641 -12.11,-7.617 -24.219,-12.969 -36.289,-16.059 -5.192,6.219 -9.532,12.11 -12.973,17.622 -8.32,6.207 -15.231,12.777 -20.738,19.73 -8.672,12.066 -16.762,24.84 -24.371,38.359 -12.071,13.118 -22.969,26.598 -32.661,40.387 -15.937,26.293 -32.699,51.012 -50.308,74.184 -12.071,20.386 -25.039,41.129 -38.91,62.218 -2.731,4.141 -6.371,8.481 -10.86,12.969 -2.422,5.512 -2.769,10.672 -1.011,15.551 m 173.671,443.79 c -29.421,-3.48 -58.089,-10.04 -86.062,-19.69 -53.59,-11.05 -105.469,-25.08 -155.539,-42.03 -33.211,-15.55 -67.039,-28.121 -101.641,-37.808 -18.988,48.038 -32.66,97.968 -40.937,149.798 -4.852,10.74 -7.973,22.31 -9.34,34.77 4.488,10.7 13.828,16.25 28.008,16.56 64.961,32.5 135.621,56.52 212.031,72.07 10.738,4.18 22.5,5.86 35.238,5.2 7.961,-4.85 17.813,-17.27 29.571,-37.31 11.75,-20.08 21.089,-34.76 28,-44.06 26.601,-30.82 46.8,-63.28 60.671,-97.5 M 0,759.922 C 1.76172,654.141 23.7109,556.02 65.8594,465.43 c 5.5117,-9.301 10.3906,-18.52 14.4922,-27.461 7.6172,-17.66 14.3398,-34.918 20.2384,-51.84 9.332,-14.527 18.672,-29.219 28,-44.059 19.691,-39.101 44.07,-74.879 73.09,-107.34 6.601,-3.832 11.949,-7.781 16.09,-11.921 2.742,-3.829 4.652,-7.297 5.71,-10.348 6.911,-4.879 14.02,-9.531 21.25,-14.02 6.559,-8.992 13.668,-16.961 21.29,-23.871 6.871,-4.14 12.929,-7.769 18.121,-10.898 16.25,-11.762 32.66,-25.551 49.257,-41.481 13.122,-9.691 28.012,-17.621 44.571,-23.8316 7.621,-5.5508 13.32,-10.1992 17.109,-13.9805 11.402,-5.5508 35.231,-17.4687 71.563,-35.7891 36.289,-17.9687 59.609,-29.5703 69.961,-34.7617 3.519,-2.0664 8.828,-4.64841 16.097,-7.77732 10,1.41016 11.602,3.28906 4.641,5.71092 -25.891,24.8789 -65.82,55.8164 -119.762,92.8083 -53.558,36.989 -93.476,67.418 -119.726,91.25 -29.731,33.2 -57.93,67.27 -84.532,102.192 -6.211,5.508 -13.519,12.578 -21.761,21.207 -7.969,8.672 -10.188,17.66 -6.758,26.953 1.719,1.058 4.34,3.476 7.777,7.269 13.473,11.438 26.801,25.079 39.922,40.938 5.512,10.742 12.07,21.133 19.691,31.133 5.899,3.468 9.528,4.84 10.899,4.179 7.609,7.61 14.719,15 21.289,22.258 6.172,7.621 16.402,7.461 30.543,-0.539 2.457,-3.441 5.738,-7.07 9.848,-10.82 3.511,-2.469 8.82,-5.039 16.089,-7.82 3.121,-4.141 6.25,-8.122 9.34,-11.911 6.211,-7.269 19.531,-20.937 39.922,-40.98 20.391,-20.039 34.758,-32.649 43,-37.809 -12.422,17.231 -31.601,40.782 -57.5,70.469 -25.93,30.082 -44.601,53.59 -56.012,70.512 11.051,12.461 22.461,23.711 34.219,33.711 5.551,4.84 11.563,11.25 18.121,19.218 4.141,2.418 8.321,4.801 12.461,7.219 3.129,5.199 7.07,10.199 11.961,15.039 l 9.84,2.582 c 3.437,1.758 6.41,4.649 8.789,8.828 5.551,0.704 11.25,2.071 17.109,4.141 9.02,8.32 18.321,15.039 28.012,20.191 5.539,2.821 10.738,4.731 15.539,5.75 2.781,0 7.11,-1.57 12.969,-4.691 3.793,-3.437 12.109,-15.391 24.891,-35.738 12.769,-20.43 22.609,-34.922 29.57,-43.563 9.64,-14.84 21.558,-31.636 35.738,-50.308 C 635.82,421.211 674.922,376.949 716.02,332.699 694.922,310.27 671.09,291.211 644.488,275.66 631.68,264.301 619.73,250.621 608.672,234.73 c -29.692,-32.5 -55.434,-70 -77.223,-112.539 l -2.621,-6.171 c -3.129,-7.622 -5.508,-16.4497 -7.226,-26.4887 1.718,-4.1016 4.097,-8.4415 7.226,-12.9297 l 5.742,-1.0508 c 13.09,19.0195 26.602,38.7112 40.391,59.1402 15.59,18.981 31.801,38.668 48.789,59.059 5.859,5.199 11.91,10.23 18.129,15.039 13.473,14.883 27.851,29.223 43.043,43.012 5.156,7.609 12.578,15.23 22.269,22.847 12.11,8.282 23.707,15.743 34.758,22.301 9.653,-8.32 19.891,-15.738 30.59,-22.301 5.859,-3.128 12.77,-6.597 20.699,-10.347 6.25,-6.961 12.313,-13.871 18.172,-20.75 6.559,-4.492 14.879,-9.68 24.918,-15.539 6.172,-5.551 11.91,-11.602 17.07,-18.172 16.25,-10.039 32.653,-19.371 49.262,-28 l 3.121,2.07 c -43.203,45.27 -85,89.84 -125.472,133.75 12.113,8.629 24.691,16.25 37.851,22.809 22.461,12.812 47.352,23.711 74.649,32.691 2.781,3.09 6.211,5.672 10.39,7.781 5.512,0 9.852,-0.203 12.973,-0.511 7.93,1.679 14.34,4.3 19.137,7.769 5.863,2.422 11.961,3.133 18.171,2.071 7.258,1.371 12.77,3.64 16.598,6.718 11.051,3.133 15.902,2.582 14.492,-1.558 -3.441,-2.418 -2.23,-4.34 3.629,-5.7 3.832,-0.32 10.551,0.7 20.241,3.122 9.65,2.07 17.26,3.437 22.77,4.136 11.8,-31.129 19.57,-63.75 23.36,-98.008 4.84,-17.609 8.13,-34.371 9.88,-50.23 1.02,-18.359 1.68,-37.539 2.07,-57.578 l 5.71,-1.051 c 5.5,9.68 8.94,19.367 10.35,29.059 2.77,28.32 1.72,55.82 -3.13,82.422 -1.72,13.828 -2.73,29.418 -3.08,46.636 -1.41,6.25 -3.99,16.25 -7.78,30.121 -3.47,13.789 -3.67,24.493 -0.54,32.11 12.11,14.883 37.5,25.082 76.25,30.582 38.71,5.199 66.68,11.961 83.94,20.238 -22.42,3.481 -52.34,3.09 -89.69,-1.019 -37.34,-4.141 -64.1,-2.61 -80.35,4.652 l -5.7,6.207 c -8.63,28.012 -17.27,56.172 -25.94,84.492 -4.14,11.098 -7.77,21.141 -10.9,30.117 -6.56,20.742 -11.52,40.043 -15,58.051 -18.672,40.473 -35.43,82.621 -50.269,126.481 18.988,6.96 55.269,12.82 108.869,17.66 53.55,5.191 89.14,9.691 106.76,13.48 -24.18,7.61 -63.75,10.192 -118.72,7.77 -54.96,-2.379 -92.421,-6.559 -112.46,-12.461 -24.918,61.91 -53.59,122.543 -86.09,181.992 -20.43,27.699 -36.988,55.979 -49.77,85.039 10,2.42 21.801,4.18 35.239,5.2 21.09,5.15 43.051,10.03 65.859,14.53 33.16,-1.76 60.152,4.29 80.902,18.12 -45.32,8.63 -86.8,9.69 -124.46,3.09 -8.668,-1.02 -22.809,-3.95 -42.54,-8.79 -19.679,-4.85 -33.16,-6.41 -40.429,-4.65 l -1.012,2.58 c -23.867,31.79 -47.539,61.72 -71.019,89.69 -4.489,7.26 -8.821,14.49 -12.969,21.79 -14.531,13.83 -28.199,27.31 -40.973,40.43 -4.848,5.55 -9.34,9.69 -13.476,12.42 0.347,2.43 0.699,4.89 1.019,7.27 32.848,7.27 66.008,15.39 99.57,24.37 -14.531,0.36 -27.5,-0.85 -38.871,-3.63 -17.66,1.06 -33.871,0.35 -48.75,-2.07 -4.492,-2.07 -10.039,-4.3 -16.601,-6.72 -6.25,1.37 -11.059,3.13 -14.489,5.16 -9.691,6.91 -20.75,15.58 -33.25,25.94 8.321,-9.34 13.52,-20.75 15.59,-34.22 -48.359,-11.76 -97.3,-24.03 -146.718,-36.84 -38.051,-12.42 -74.332,-25.9 -108.872,-40.43 l -3.671,2.07 c -1.68,8.64 -3.079,16.25 -4.137,22.82 -5.543,4.17 -9.652,8.67 -12.422,13.47 -5.199,-6.21 -8.121,-14.84 -8.828,-25.9 -0.313,-11.05 -3.281,-20.23 -8.793,-27.46 -3.789,-0.39 -8.117,-1.44 -12.969,-3.12 -10.738,-7.62 -21.789,-15.39 -33.199,-23.32 -17.621,-13.13 -34.883,-27.7 -51.832,-43.56 -9.34,-5.86 -19.18,-12.5 -29.539,-19.72 -18.668,-20.39 -37.891,-41.65 -57.57,-63.75 -5.86,-6.25 -11.411,-11.61 -16.61,-16.1 11.449,28.36 24.031,52.23 37.891,71.53 25.898,54.96 59.258,100.62 100.039,136.91 13.871,12.07 29.57,23.12 47.191,33.16 7.93,10.71 16.918,18.87 26.989,24.38 15.55,8.67 31.96,16.95 49.218,24.88 23.524,14.18 47.543,27.46 72.071,39.92 22.82,9.34 46.679,16.25 71.531,20.75 7.262,3.47 14.719,6.75 22.34,9.88 21.05,5.15 43.871,7.58 68.398,7.22 35.973,1.41 70,5.36 102.152,11.92 -68.441,7.93 -131.878,6.09 -190.281,-5.7 -19.371,-2.39 -36.988,-5.67 -52.847,-9.85 -4.532,-3.44 -8.872,-6.4 -12.973,-8.79 -14.879,-4.88 -29.219,-8.98 -43.078,-12.46 -16.571,-6.91 -31.102,-14.14 -43.52,-21.76 -34.57,-14.88 -66.562,-30.97 -95.941,-48.24 -15.192,-11.76 -28.512,-24.18 -39.918,-37.3 C 146.762,1187.66 86.7617,1098.67 42.5391,981.84 15.5508,906.84 1.37109,832.852 0,759.922" /><path
         id="path18"
         style="fill:#ffffff;fill-opacity:1;fill-rule:evenodd;stroke:none"
         d="m 514.34,1381.6 -5.711,-2.62 5.711,2.62" /><path
         id="path20"
         style="fill:#297abc;fill-opacity:1;fill-rule:nonzero;stroke:none"
         d="m 1345.16,1450.08 h 141.09 V 453.361 h -141.09 z m 337.77,-127.97 v -286.56 h 540.94 V 907.578 H 1682.93 V 453.359 h -139.69 v 996.721 h 771.72 v -127.97 z" /><path
         id="path22"
         style="fill:#297abc;fill-opacity:1;fill-rule:nonzero;stroke:none"
         d="M 3080.62,453.359 2704.38,864.922 2323.59,453.359 h -183.75 l 470.47,511.563 -448.43,485.158 h 186.71 l 355.79,-386.72 358.74,386.72 h 185.16 L 2798.44,964.922 3262.97,453.359 Z" /><path
         id="path24"
         style="fill:#297abc;fill-opacity:1;fill-rule:nonzero;stroke:none"
         d="M 1653.01,12.3008 V 236.988 L 1531.29,12.3008 h -32.5 L 1377.07,236.988 V 12.3008 h -45.16 V 330.898 h 44.22 l 138.6,-256.0972 139.22,256.0972 h 44.06 V 12.3008 Z m 63.51,0 V 330.898 h 263.75 v -40.777 h -219.06 v -91.723 h 194.06 V 157.461 H 1761.21 V 53.2383 h 221.41 V 12.3008 Z" /><path
         id="path26"
         style="fill:#297abc;fill-opacity:1;fill-rule:nonzero;stroke:none"
         d="M 2123.4,290.121 V 12.3008 h -45.16 V 290.121 h -122.19 v 40.777 h 289.07 v -40.777 z" /><path
         id="path28"
         style="fill:#297abc;fill-opacity:1;fill-rule:nonzero;stroke:none"
         d="m 2503.09,12.3008 -45.63,94.0702 h -157.03 l -46.56,-94.0702 h -50.63 l 159.69,318.5972 h 35.31 L 2552.46,12.3008 Z m -122.66,252.3472 -59.22,-117.5 h 116.56 z" /><path
         id="path30"
         style="fill:#297abc;fill-opacity:1;fill-rule:nonzero;stroke:none"
         d="M 2537.19,12.3008 V 330.898 h 45.15 V 53.2383 h 201.1 V 12.3008 Z" /><path
         id="path32"
         style="fill:#297abc;fill-opacity:1;fill-rule:nonzero;stroke:none"
         d="m 2941.09,12.3086 h 45.1602 v 318.59 H 2941.09 Z" /><path
         id="path34"
         style="fill:#297abc;fill-opacity:1;fill-rule:nonzero;stroke:none"
         d="M 3264.92,12.3008 3049.61,259.488 V 12.3008 h -45.16 V 330.898 h 40.47 c 27.27,-32.5 63.48,-74.179 108.6,-125 54.45,-61.058 90.19,-101.328 107.18,-120.7769 V 330.898 h 45 V 12.3008 Z" /><path
         id="path36"
         style="fill:#297abc;fill-opacity:1;fill-rule:nonzero;stroke:none"
         d="m 3615.31,241.211 c -13.75,18.75 -29.33,32.109 -46.72,40.16 -17.42,8.008 -39.14,12.027 -65.15,12.027 -42.31,0 -75.74,-11.058 -100.32,-33.128 -24.6,-22.11 -36.87,-51.79 -36.87,-89.059 0,-36.992 11.64,-66.481 35,-88.4415 23.32,-21.8711 55.66,-32.8086 97.03,-32.8086 24.77,0 46.02,4.0586 63.75,12.1875 17.7,8.1211 34.22,21.6016 49.53,40.4726 l 38.6,-23.1327 C 3611.29,32.5 3560.82,9.01953 3498.75,9.01953 c -53.87,0 -96.95,14.46097 -129.22,43.44137 -32.3,28.9493 -48.44,67.8911 -48.44,116.8791 0,50.39 16.61,90.461 49.85,120.148 33.2,29.774 77.38,44.692 132.5,44.692 64.57,0 114.57,-23.36 150,-70 z" /><path
         id="path38"
         style="fill:#297abc;fill-opacity:1;fill-rule:nonzero;stroke:none"
         d="m 3701.72,11.3711 c -15.12,0 -22.66,4.5273 -22.66,13.5898 v 13.5899 c 0,9.1484 7.54,13.75 22.66,13.75 15,0 22.5,-4.6016 22.5,-13.75 V 24.9609 c 0,-9.0625 -7.5,-13.5898 -22.5,-13.5898 z" /></g></g></svg>